<svg width="20" height="20" viewBox="0 0 20 20" fill="none" xmlns="http://www.w3.org/2000/svg">
    <path d="M12.723 18.0102L6.05633 10.5102C5.92273 10.3581 5.84905 10.1626 5.84905 9.96019C5.84905 9.75777 5.92273 9.56227 6.05633 9.41019L12.723 1.91019C12.8717 1.75533 13.0745 1.66387 13.2891 1.65486C13.5036 1.64586 13.7133 1.72002 13.8745 1.86187C14.0357 2.00372 14.1359 2.20232 14.1543 2.41626C14.1726 2.6302 14.1077 2.84297 13.973 3.01019L7.79799 9.96019L13.973 16.9102C14.0509 16.9913 14.1116 17.0874 14.1514 17.1926C14.1912 17.2978 14.2093 17.41 14.2046 17.5224C14.1999 17.6348 14.1724 17.7451 14.124 17.8466C14.0755 17.9481 14.007 18.0387 13.9225 18.1131C13.8381 18.1874 13.7394 18.2438 13.6326 18.279C13.5257 18.3142 13.4129 18.3274 13.3008 18.3177C13.1887 18.3081 13.0797 18.2759 12.9804 18.2231C12.8811 18.1702 12.7936 18.0978 12.723 18.0102Z" fill="white"/>
</svg>
