<svg width="20" height="20" viewBox="0 0 20 20" fill="none" xmlns="http://www.w3.org/2000/svg">
    <path d="M14.6975 6.59917H12.9917C12.6467 6.59917 12.3667 6.87875 12.3667 7.22417C12.3667 7.56959 12.6467 7.84917 12.9917 7.84917H14.6979C15.0425 7.84917 15.3229 8.12959 15.3229 8.47417V16.6475C15.3229 16.9921 15.0425 17.2725 14.6979 17.2725H5.30249C4.95791 17.2725 4.67749 16.9921 4.67749 16.6475V8.47417C4.67749 8.12959 4.95791 7.84917 5.30249 7.84917H7.00874C7.35416 7.84917 7.63374 7.56959 7.63374 7.22417C7.63374 6.87875 7.35416 6.59917 7.00874 6.59917H5.30249C4.26874 6.59917 3.42749 7.44042 3.42749 8.47417V16.6475C3.42749 17.6813 4.26874 18.5225 5.30249 18.5225H14.6979C15.7317 18.5225 16.5729 17.6813 16.5729 16.6475V8.47417C16.5725 7.44 15.7317 6.59917 14.6975 6.59917ZM7.66957 5.3375L9.39582 3.61125V11.8396C9.39582 12.1846 9.67541 12.4646 10.0208 12.4646C10.3662 12.4646 10.6458 12.1846 10.6458 11.8396V3.61125L12.3721 5.3375C12.4942 5.45959 12.6542 5.52042 12.8142 5.52042C12.9742 5.52042 13.1342 5.45959 13.2562 5.3375C13.5004 5.09375 13.5004 4.6975 13.2562 4.45375L10.4633 1.66042C10.2187 1.41625 9.82332 1.41625 9.57916 1.66042L6.78582 4.45375C6.54166 4.6975 6.54166 5.09375 6.78582 5.3375C7.02999 5.58167 7.42541 5.58167 7.66957 5.3375Z" fill="#333333"/>
</svg>
